<svg width="136" height="136" viewBox="0 0 136 136" fill="none" xmlns="http://www.w3.org/2000/svg">
<g filter="url(#filter0_d_272_86)">
<rect x="4" width="128" height="128" rx="20" fill="#A64029"/>
</g>
<path d="M47.9004 28.2734C47.9004 36.5703 42.7324 41.3516 36.0176 41.3516C29.2324 41.3516 24.0996 36.5352 24.0996 28.2734C24.0996 19.9766 29.2324 15.1953 36.0176 15.1953C42.7324 15.1953 47.9004 19.9766 47.9004 28.2734ZM42.5215 28.2734C42.5215 22.8242 39.9551 19.8711 36.0176 19.8711C32.0801 19.8711 29.4785 22.8242 29.4785 28.2734C29.4785 33.7227 32.0801 36.6758 36.0176 36.6758C39.9551 36.6758 42.5215 33.7227 42.5215 28.2734Z" fill="#FDFCFA"/>
<path d="M96.1914 15.5469L101.395 24.3008H101.57L106.809 15.5469H112.785L105.016 28.2734L112.961 41H106.844L101.57 32.2461H101.395L96.1211 41H90.0391L98.0195 28.2734L90.1797 15.5469H96.1914Z" fill="#FDFCFA"/>
<path d="M24.082 87.5469H30.0234L35.8945 98.5156H36.1406L41.9766 87.5469H47.918L38.6367 103.93V113H33.3633V103.93L24.082 87.5469Z" fill="#FDFCFA"/>
<path d="M92.2715 113V87.5469H102.256C108.057 87.5469 111.361 90.8164 111.361 95.8438C111.361 99.3242 109.762 101.855 106.861 103.086L112.275 113H106.439L101.588 103.965H97.5449V113H92.2715ZM97.5449 99.6758H101.271C104.4 99.6758 105.912 98.375 105.912 95.8438C105.912 93.2773 104.4 91.8711 101.271 91.8711H97.5449V99.6758Z" fill="#FDFCFA"/>
<path d="M60.1328 60.2734V62.875H57.6016V73H54.1328V62.875H52.3281V60.2734H54.1328V59.3125C54.1328 56.6406 55.75 55.2344 58.3047 55.2344C59.1016 55.2344 59.7578 55.3047 60.3672 55.4453V58.0703C59.875 58.0234 59.5 58 59.3125 58C58.1875 58 57.6016 58.4453 57.6016 59.5V60.2734H60.1328ZM67.4219 73.2578C63.5781 73.2578 61.1875 70.6094 61.1875 66.6719C61.1875 62.7344 63.5781 60.1094 67.4219 60.1094C71.2656 60.1094 73.6797 62.7344 73.6797 66.6719C73.6797 70.6094 71.2656 73.2578 67.4219 73.2578ZM67.4453 70.5625C69.2266 70.5625 70.1406 68.8984 70.1406 66.6719C70.1406 64.4219 69.2266 62.7578 67.4453 62.7578C65.6406 62.7578 64.7031 64.4219 64.7031 66.6719C64.7031 68.8984 65.6406 70.5625 67.4453 70.5625ZM75.8594 73V60.2734H79.2109V62.4766H79.3516C79.8203 60.9062 80.9922 60.0859 82.4219 60.0859C82.7734 60.0859 83.2188 60.1328 83.5234 60.2031V63.2969C83.1953 63.2031 82.5391 63.1094 82.0469 63.1094C80.4766 63.1094 79.3281 64.2109 79.3281 65.7578V73H75.8594Z" fill="white"/>
<defs>
<filter id="filter0_d_272_86" x="0" y="0" width="136" height="136" filterUnits="userSpaceOnUse" color-interpolation-filters="sRGB">
<feFlood flood-opacity="0" result="BackgroundImageFix"/>
<feColorMatrix in="SourceAlpha" type="matrix" values="0 0 0 0 0 0 0 0 0 0 0 0 0 0 0 0 0 0 127 0" result="hardAlpha"/>
<feOffset dy="4"/>
<feGaussianBlur stdDeviation="2"/>
<feComposite in2="hardAlpha" operator="out"/>
<feColorMatrix type="matrix" values="0 0 0 0 0 0 0 0 0 0 0 0 0 0 0 0 0 0 0.25 0"/>
<feBlend mode="normal" in2="BackgroundImageFix" result="effect1_dropShadow_272_86"/>
<feBlend mode="normal" in="SourceGraphic" in2="effect1_dropShadow_272_86" result="shape"/>
</filter>
</defs>
</svg>
